<?xml version="1.0" encoding="utf-8"?>
<!-- Generator: Adobe Illustrator 16.0.0, SVG Export Plug-In . SVG Version: 6.00 Build 0)  -->
<!DOCTYPE svg PUBLIC "-//W3C//DTD SVG 1.1//EN" "http://www.w3.org/Graphics/SVG/1.1/DTD/svg11.dtd">
<svg version="1.1" id="Layer_1" xmlns="http://www.w3.org/2000/svg" xmlns:xlink="http://www.w3.org/1999/xlink" x="0px" y="0px"
	 width="50.3px" height="560px" viewBox="0 0 50.3 560" style="enable-background:new 0 0 50.3 560;" xml:space="preserve">
<style type="text/css">
<![CDATA[
	.st0{fill:#4967A9;}
	.st1{fill:#4D4D4D;}
	.st2{fill:none;stroke:#344253;stroke-width:1.9422;stroke-linecap:round;stroke-linejoin:round;stroke-miterlimit:10;}
	.st3{fill:none;stroke:#3F5978;stroke-width:2;stroke-linecap:round;stroke-linejoin:round;stroke-miterlimit:10;}
	.st4{fill:#268DCD;}
	.st5{fill:#2AA9E0;}
	.st6{fill:#FFFFFF;}
	.st7{opacity:0.5;fill:none;stroke:#344253;stroke-width:1.9422;stroke-linecap:round;stroke-linejoin:round;stroke-miterlimit:10;}
	.st8{fill:none;stroke:#FF9343;stroke-width:1.9422;stroke-linecap:round;stroke-linejoin:round;stroke-miterlimit:10;}
]]>
</style>
<polyline class="st2" points="14.4,4.3 9,9.7 3.6,4.3 "/>
<g>
	<polyline class="st7" points="12.4,41.2 3.7,49.9 12.4,58.6 	"/>
</g>
<polyline class="st7" points="4,83.2 12.7,91.9 4,100.6 "/>
<polyline class="st3" points="4.3,141.7 9.7,147 4.3,152.4 "/>
<polyline class="st8" points="4.7,179.7 10.1,185 4.7,190.4 "/>
<path class="st0" d="M19.7,280.2c-9.8,0-17.8,8-17.8,17.8c0,9.8,8,17.8,17.8,17.8c9.8,0,17.8-8,17.8-17.8
	C37.5,288.2,29.5,280.2,19.7,280.2z M24.4,291.5c-0.9,0-1.8,0-2.2,0c-0.4,0-0.9,0.5-0.9,0.8c0,0.3,0,2.3,0,2.3s2.8,0,3.1,0
	c-0.1,1.8-0.4,3.4-0.4,3.4h-2.8v10h-4.1v-10h-2v-3.4h2c0,0,0-2.3,0-2.8c0-0.5-0.1-3.9,4.2-3.9c0.6,0,1.9,0,3.1,0
	C24.4,289.4,24.4,291,24.4,291.5z"/>
<g>
	<path class="st5" d="M19.7,325.2c-9.8,0-17.8,8-17.8,17.8c0,9.8,8,17.8,17.8,17.8c9.8,0,17.8-8,17.8-17.8
		C37.5,333.1,29.5,325.2,19.7,325.2z"/>
	<path class="st6" d="M31,338c-0.8,0.3-1.6,0.6-2.5,0.7c0.9-0.5,1.6-1.4,1.9-2.4c-0.8,0.5-1.7,0.8-2.7,1c-0.8-0.8-1.9-1.3-3.1-1.3
		c-2.4,0-4.3,1.9-4.3,4.3c0,0.3,0,0.7,0.1,1c-3.6-0.2-6.7-1.9-8.8-4.5c-0.4,0.6-0.6,1.4-0.6,2.1c0,1.5,0.8,2.8,1.9,3.6
		c-0.7,0-1.4-0.2-1.9-0.5c0,0,0,0,0,0.1c0,2.1,1.5,3.8,3.4,4.2c-0.4,0.1-0.7,0.2-1.1,0.2c-0.3,0-0.5,0-0.8-0.1c0.5,1.7,2.1,2.9,4,3
		c-1.5,1.1-3.3,1.8-5.3,1.8c-0.3,0-0.7,0-1-0.1c1.9,1.2,4.1,1.9,6.6,1.9c7.9,0,12.2-6.5,12.2-12.2c0-0.2,0-0.4,0-0.6
		C29.7,339.6,30.4,338.9,31,338z"/>
</g>
<g>
	<path class="st1" d="M19.7,370.1c-9.8,0-17.8,8-17.8,17.8c0,9.8,8,17.8,17.8,17.8c9.8,0,17.8-8,17.8-17.8
		C37.5,378.1,29.5,370.1,19.7,370.1z"/>
	<path class="st6" d="M12,384.3h3.7v12H12V384.3z M13.9,378.4c1.2,0,2.2,1,2.2,2.2c0,1.2-1,2.2-2.2,2.2c-1.2,0-2.2-1-2.2-2.2
		C11.8,379.3,12.7,378.4,13.9,378.4"/>
	<path class="st6" d="M18.1,384.3h3.6v1.6h0.1c0.5-0.9,1.7-1.9,3.5-1.9c3.8,0,4.5,2.5,4.5,5.7v6.6H26v-5.8c0-1.4,0-3.2-1.9-3.2
		c-1.9,0-2.2,1.5-2.2,3.1v5.9h-3.7V384.3z"/>
</g>
<g>
	<circle class="st4" cx="19.8" cy="433" r="17.9"/>
	<g>
		<path class="st6" d="M25.9,430.5L25.9,430.5c-0.8-1.2-2.5-2.6-4.3-4.4c-1.4-1.4-1.6-3.1-1.6-3.9v0v0v0v0c0,0.7-0.3,2.4-1.6,3.9
			c-1.4,1.5-2.8,2.7-3.7,3.7c-0.2,0.2-0.4,0.5-0.6,0.7c0,0,0,0,0,0h0c-0.9,1.2-1.4,2.6-1.4,4.2c0,4,3.2,7.3,7.3,7.3s7.3-3.3,7.3-7.3
			C27.3,433.2,26.8,431.7,25.9,430.5z"/>
	</g>
</g>
</svg>
